<svg width="136" height="51" viewBox="0 0 136 51" fill="none" xmlns="http://www.w3.org/2000/svg">
<path fill-rule="evenodd" clip-rule="evenodd" d="M42 19V0H38.761V19H42ZM60 8L54 19L56.8435 20.551L62.8435 9.55102L60 8ZM25 21L19 11L21.7775 9.33353L27.7775 19.3335L25 21ZM0 19L13 29L14.9749 26.4327L1.97488 16.4327L0 19ZM72.9999 50.8099C70.2933 34.457 56.3249 22 39.4999 22C22.675 22 8.70655 34.457 5.99994 50.8099H72.9999ZM18.268 45.1L16.504 48.404C17.176 48.8333 17.876 49.216 18.604 49.552C19.332 49.888 20.1067 50.1493 20.928 50.336C21.768 50.5227 22.664 50.616 23.616 50.616C25.2027 50.616 26.4253 50.2707 27.284 49.58C28.1613 48.8893 28.6 47.816 28.6 46.36C28.6 45.5573 28.4227 44.9133 28.068 44.428C27.732 43.9427 27.284 43.5507 26.724 43.252C26.1827 42.9347 25.5853 42.6547 24.932 42.412C24.2413 42.1507 23.672 41.9453 23.224 41.796C22.776 41.6467 22.44 41.4973 22.216 41.348C21.992 41.18 21.88 40.9653 21.88 40.704C21.88 40.5173 21.9547 40.3587 22.104 40.228C22.272 40.0973 22.5333 40.032 22.888 40.032C23.448 40.032 24.092 40.2 24.82 40.536C25.5667 40.8533 26.2387 41.2733 26.836 41.796L28.264 38.576C27.6853 38.24 27.0973 37.9507 26.5 37.708C25.9027 37.4467 25.268 37.2413 24.596 37.092C23.9427 36.924 23.2333 36.84 22.468 36.84C21.4787 36.84 20.6107 36.9893 19.864 37.288C19.1173 37.568 18.5293 37.988 18.1 38.548C17.6707 39.0893 17.456 39.7613 17.456 40.564C17.456 41.404 17.624 42.0947 17.96 42.636C18.3147 43.1587 18.772 43.5787 19.332 43.896C19.892 44.1947 20.48 44.4467 21.096 44.652C21.8427 44.8947 22.4027 45.1 22.776 45.268C23.168 45.436 23.4293 45.604 23.56 45.772C23.7093 45.9213 23.784 46.108 23.784 46.332C23.784 46.5933 23.7 46.7987 23.532 46.948C23.364 47.0973 23.1027 47.172 22.748 47.172C22.524 47.172 22.2067 47.1253 21.796 47.032C21.3853 46.9387 20.8907 46.7427 20.312 46.444C19.7333 46.1453 19.052 45.6973 18.268 45.1ZM35.815 44.96V37.12H30.747V45.464C30.747 46.9947 31.1017 48.1893 31.811 49.048C32.5204 49.888 33.715 50.308 35.395 50.308C36.3657 50.308 37.1684 50.112 37.803 49.72C38.4564 49.3093 38.9697 48.768 39.343 48.096V50H44.187V37.12H39.343V44.96C39.343 45.4267 39.259 45.8187 39.091 46.136C38.9417 46.4533 38.727 46.6867 38.447 46.836C38.167 46.9853 37.8217 47.06 37.411 47.06C36.795 47.06 36.375 46.8827 36.151 46.528C35.927 46.1547 35.815 45.632 35.815 44.96ZM55.6347 42.16V50H60.7027V41.656C60.7027 40.1253 60.348 38.94 59.6387 38.1C58.9293 37.2413 57.7347 36.812 56.0547 36.812C55.0653 36.812 54.244 37.0173 53.5907 37.428C52.956 37.82 52.4613 38.352 52.1067 39.024V37.12H47.2627V50H52.1067V42.16C52.1067 41.6933 52.1813 41.3013 52.3307 40.984C52.4987 40.6667 52.7227 40.4333 53.0027 40.284C53.3013 40.1347 53.6373 40.06 54.0107 40.06C54.6453 40.06 55.0747 40.2467 55.2987 40.62C55.5227 40.9747 55.6347 41.488 55.6347 42.16ZM89.3065 50L85.7462 43.9883H84.6682V50H79.6412V31.8614H82.8544H84.6682H86.7671C88.4255 31.8614 89.7902 32.1205 90.8613 32.6387C91.9496 33.157 92.7529 33.8739 93.2711 34.7895C93.8066 35.6878 94.0744 36.7329 94.0744 37.9249C94.0744 39.0995 93.8066 40.1533 93.2711 41.0862C92.7529 42.0017 91.9496 42.7186 90.8613 43.2369C90.7871 43.2716 90.7116 43.305 90.6347 43.3373L95.1627 50H89.3065ZM84.6682 40.1792V36.111H86.3525C86.8881 36.111 87.3372 36.1887 87.7 36.3442C88.0627 36.4997 88.3391 36.7329 88.5292 37.0438C88.7365 37.3375 88.8401 37.7003 88.8401 38.1322C88.8401 38.564 88.7365 38.9354 88.5292 39.2464C88.3391 39.5573 88.0627 39.7905 87.7 39.946C87.3372 40.1015 86.8881 40.1792 86.3525 40.1792H84.6682ZM97.0764 31.8614V50H102.207V31.8614H97.0764ZM108.317 43.3664L104.897 45.854C105.294 46.7523 105.881 47.5729 106.659 48.3157C107.436 49.0412 108.352 49.6113 109.405 50.0259C110.476 50.4578 111.634 50.6737 112.878 50.6737C113.759 50.6737 114.622 50.5442 115.469 50.285C116.315 50.0432 117.067 49.6804 117.723 49.1967C118.397 48.6957 118.924 48.0738 119.304 47.331C119.701 46.5882 119.9 45.7331 119.9 44.7657C119.9 44.0402 119.788 43.3837 119.563 42.7964C119.338 42.209 119.019 41.6908 118.604 41.2416C118.19 40.7752 117.697 40.3779 117.127 40.0497C116.574 39.7042 115.961 39.4105 115.287 39.1686C114.51 38.8923 113.819 38.6418 113.215 38.4172C112.627 38.1753 112.161 37.9249 111.815 37.6657C111.487 37.3893 111.323 37.0525 111.323 36.6552C111.323 36.3097 111.47 36.0333 111.763 35.826C112.057 35.6187 112.454 35.515 112.955 35.515C113.353 35.515 113.741 35.5927 114.121 35.7482C114.501 35.9037 114.856 36.1283 115.184 36.4219C115.529 36.6983 115.832 37.0525 116.091 37.4843L119.874 35.3854C119.546 34.7636 119.079 34.1503 118.475 33.5457C117.87 32.9238 117.101 32.4142 116.169 32.0168C115.236 31.6022 114.13 31.395 112.852 31.395C111.625 31.395 110.511 31.6022 109.509 32.0168C108.507 32.4314 107.704 33.0361 107.099 33.8307C106.495 34.6081 106.192 35.5668 106.192 36.707C106.192 37.6053 106.356 38.3826 106.685 39.0391C107.03 39.6955 107.453 40.2483 107.954 40.6975C108.473 41.1466 109.008 41.518 109.561 41.8117C110.114 42.0881 110.615 42.3127 111.064 42.4854C111.979 42.8309 112.688 43.1246 113.189 43.3664C113.707 43.6083 114.07 43.8501 114.277 44.092C114.484 44.3166 114.588 44.6016 114.588 44.9471C114.588 45.4308 114.406 45.8022 114.044 46.0613C113.681 46.3032 113.223 46.4241 112.67 46.4241C112.1 46.4241 111.547 46.3032 111.012 46.0613C110.476 45.8195 109.984 45.474 109.535 45.0248C109.086 44.5584 108.68 44.0056 108.317 43.3664ZM127.555 50H135.303V45.9318H127.555V42.5373H134.785V38.5986H127.555V35.9296H135.303V31.8614H127.555H126.156H122.736V50H126.156H127.555ZM67 29L80 19L78.0251 16.4327L65.0251 26.4327L67 29Z" fill="white"/>
</svg>
